<svg version="1.1" xmlns="http://www.w3.org/2000/svg" viewBox="0 0 958 563" width="958" height="563" filter="invert(93%) hue-rotate(180deg)">
  <!-- svg-source:excalidraw -->
  
  <defs>
    <style>
      @font-face {
        font-family: "Virgil";
        src: url("https://excalidraw.com/Virgil.woff2");
      }
      @font-face {
        font-family: "Cascadia";
        src: url("https://excalidraw.com/Cascadia.woff2");
      }
    </style>
  </defs>
  <rect x="0" y="0" width="958" height="563" fill="#ffffff"></rect><g transform="translate(37 45) rotate(0 321.5 22.5)"><text x="0" y="32" font-family="Virgil, Segoe UI Emoji" font-size="36px" fill="#000000" text-anchor="start" style="white-space: pre;" direction="ltr">1 - Identificar estrutura do Redux </text></g><g transform="translate(32 133) rotate(0 338 22.5)"><text x="0" y="32" font-family="Virgil, Segoe UI Emoji" font-size="36px" fill="#000000" text-anchor="start" style="white-space: pre;" direction="ltr">2 - Criar o arquivo do nosso Context</text></g><g transform="translate(33 221) rotate(0 330 22.5)"><text x="0" y="32" font-family="Virgil, Segoe UI Emoji" font-size="36px" fill="#000000" text-anchor="start" style="white-space: pre;" direction="ltr">3 - Criação do Componente Provider </text></g><g transform="translate(111 277) rotate(0 227.5 17.5)"><text x="0" y="25" font-family="Virgil, Segoe UI Emoji" font-size="28px" fill="#000000" text-anchor="start" style="white-space: pre;" direction="ltr">armazenamento e disponibilização</text></g><g transform="translate(109 402) rotate(0 46 17.5)"><text x="0" y="25" font-family="Virgil, Segoe UI Emoji" font-size="28px" fill="#000000" text-anchor="start" style="white-space: pre;" direction="ltr">leitura</text></g><g transform="translate(98 518) rotate(0 49 17.5)"><text x="0" y="25" font-family="Virgil, Segoe UI Emoji" font-size="28px" fill="#000000" text-anchor="start" style="white-space: pre;" direction="ltr">escrita</text></g><g transform="translate(34 349) rotate(0 421.5 22.5)"><text x="0" y="32" font-family="Virgil, Segoe UI Emoji" font-size="36px" fill="#000000" text-anchor="start" style="white-space: pre;" direction="ltr">4 - Conectando o Context ao componente Cars</text></g><g transform="translate(24 467) rotate(0 312 22.5)"><text x="0" y="32" font-family="Virgil, Segoe UI Emoji" font-size="36px" fill="#000000" text-anchor="start" style="white-space: pre;" direction="ltr">5 - Alterando os dados do estado</text></g><g stroke-linecap="round" transform="translate(10 10) rotate(0 469 53)"><path d="M0.21 -0.44 C231.19 -2.97, 461.68 -3.35, 937.67 0.48 M937.47 1.55 C939.37 40.24, 939.3 84.8, 937.33 106.48 M938.77 106.28 C731.15 103.71, 524.23 103.53, -0.24 106.77 M0.69 104.44 C-0.62 79.79, -0.54 54.03, -1.74 -1.47" stroke="#495057" stroke-width="1.5" fill="none" stroke-dasharray="8 9"></path></g></svg>